<?xml version="1.0" encoding="UTF-8" standalone="no"?>
<!DOCTYPE svg PUBLIC "-//W3C//DTD SVG 1.1//EN" "http://www.w3.org/Graphics/SVG/1.1/DTD/svg11.dtd">
<!-- Created with Vectornator (http://vectornator.io/) -->
<svg height="100%" stroke-miterlimit="10" style="fill-rule:nonzero;clip-rule:evenodd;stroke-linecap:round;stroke-linejoin:round;" version="1.1" viewBox="0 0 2160 1620" width="100%" xml:space="preserve" xmlns="http://www.w3.org/2000/svg" xmlns:vectornator="http://vectornator.io" xmlns:xlink="http://www.w3.org/1999/xlink">
<defs>
<path d="M1224.17 536.033C1134.22 536.033 1061.3 608.953 1061.3 698.908C1061.3 788.863 1134.22 861.783 1224.17 861.783C1314.13 861.783 1387.05 788.863 1387.05 698.908C1387.05 688.838 1385.99 679.036 1384.24 669.471C1383.38 670.644 1382.54 671.841 1381.58 672.939C1371.13 687.96 1352.96 696.798 1333.61 694.033C1306.79 690.202 1288.03 665.744 1291.02 639.002C1291.02 639.002 1291.05 638.746 1291.05 638.689C1291.07 638.366 1291.12 637.476 1291.17 636.908C1291.31 635.529 1291.5 634.143 1291.8 632.533C1293.06 625.637 1295.57 618.777 1300.61 611.814C1306.18 604.123 1313.04 598.947 1320.42 595.533C1322.4 594.619 1324.22 593.93 1325.99 593.346C1326.93 593.033 1327.7 592.792 1328.52 592.564C1329.38 592.325 1329.46 592.317 1329.27 592.377C1334.61 590.713 1339.99 590.184 1345.3 590.314C1315.48 557.08 1272.34 536.033 1224.17 536.033Z" id="Fill"/>
<linearGradient gradientTransform="matrix(1 0 0 1 138.206 -0.594773)" gradientUnits="userSpaceOnUse" id="LinearGradient" x1="923.094" x2="1248.84" y1="699.503" y2="699.503">
<stop offset="0" stop-color="#781c70" stop-opacity="0.857988"/>
<stop offset="0.9375" stop-color="#781c70" stop-opacity="0.678902"/>
</linearGradient>
<linearGradient gradientTransform="matrix(1 0 0 1 -16.0552 -65.4033)" gradientUnits="userSpaceOnUse" id="LinearGradient_2" x1="1037.93" x2="1221.5" y1="904.566" y2="904.566">
<stop offset="0" stop-color="#781c70" stop-opacity="0.321708"/>
<stop offset="0.9375" stop-color="#781c70" stop-opacity="0.678902"/>
</linearGradient>
<path d="M1242.13 619.619C1242.13 570.67 1281.81 530.989 1330.76 530.989C1379.71 530.989 1419.39 570.67 1419.39 619.619C1419.39 668.569 1379.71 708.25 1330.76 708.25C1281.81 708.25 1242.13 668.569 1242.13 619.619Z" id="Fill_2"/>
</defs>
<g id="Ebene-1" vectornator:layerName="Ebene 1">
<path d="M793.094 736.406C784.76 736.406 776.648 737.169 768.75 738.5C764.482 740.358 759.889 741.636 755 742.125C756.205 742.005 757.12 741.872 758 741.719C757.723 741.775 757.614 741.797 757.375 741.844C755.769 742.158 754.249 742.408 752.5 742.625C751.975 742.69 751.432 742.697 750.906 742.75C699.85 758.331 663.094 801.258 663.094 851.906C663.094 884.472 678.315 913.816 702.719 934.812C723.27 931.939 739.424 929.871 755.188 928.438C803.054 924.086 851.184 920.844 899.313 918.375C914.255 899.567 923.094 876.678 923.094 851.906C923.094 829.141 915.576 807.985 902.75 790.125C902.179 790.525 901.679 790.985 901.094 791.375C879.564 805.728 850.478 799.936 836.125 778.406C828.516 766.993 826.784 753.531 829.875 741.219C818.2 738.152 805.889 736.406 793.094 736.406ZM781.312 946.406C773.211 947.073 765.088 947.64 757 948.375C747.225 949.264 738.064 950.323 727.688 951.625C729.123 952.37 730.687 952.926 732.156 953.625C748.942 950.792 765.326 948.365 781.312 946.406Z" fill="#73196b" fill-opacity="0.632586" fill-rule="nonzero" opacity="0" stroke="#500a50" stroke-linecap="butt" stroke-linejoin="round" stroke-width="13.5398" vectornator:layerName="Kurve 1"/>
<g fill="#781c70" fill-opacity="0.931154" opacity="0" stroke="none" vectornator:layerName="Text 2">
<path d="M672.605 558.877L682.655 558.812L683.074 624.159L720.646 623.918L720.703 632.756L673.081 633.062L672.605 558.877Z"/>
<path d="M738.132 578.556L738.363 614.462C738.38 617.222 738.833 619.475 739.719 621.22C741.356 624.442 744.379 626.039 748.79 626.01C755.119 625.97 759.41 623.114 761.663 617.443C762.89 614.405 763.486 610.244 763.452 604.958L763.281 578.395L772.372 578.336L772.719 632.422L764.134 632.477L764.183 624.498C763.018 626.559 761.565 628.302 759.823 629.727C756.374 632.578 752.174 634.019 747.225 634.05C739.516 634.1 734.247 631.558 731.42 626.425C729.887 623.674 729.106 619.992 729.076 615.38L728.84 578.616L738.132 578.556Z"/>
<path d="M786.562 578.245L795.198 578.19L795.247 585.866C797.785 582.685 800.481 580.395 803.334 578.996C806.187 577.597 809.364 576.887 812.865 576.864C820.541 576.815 825.743 579.458 828.471 584.794C829.971 587.714 830.738 591.9 830.773 597.354L830.996 632.048L821.754 632.108L821.536 598.02C821.515 594.72 821.009 592.064 820.02 590.05C818.382 586.694 815.443 585.029 811.201 585.056C809.046 585.07 807.28 585.3 805.902 585.747C803.416 586.504 801.237 587.999 799.366 590.233C797.862 592.027 796.889 593.877 796.447 595.782C796.005 597.687 795.795 600.407 795.817 603.942L795.999 632.273L786.909 632.331L786.562 578.245Z"/>
<path d="M851.306 617.525C851.323 620.151 852.295 622.215 854.224 623.718C856.153 625.22 858.43 625.963 861.056 625.947C864.255 625.926 867.347 625.165 870.334 623.665C875.368 621.175 877.868 617.135 877.832 611.547L877.785 604.224C876.678 604.938 875.251 605.537 873.504 606.019C871.756 606.502 870.041 606.849 868.359 607.062L862.859 607.805C859.562 608.263 857.092 608.969 855.449 609.923C852.664 611.523 851.284 614.057 851.306 617.525ZM873.206 599.001C875.292 598.719 876.683 597.834 877.381 596.348C877.779 595.538 877.974 594.375 877.964 592.86C877.944 589.763 876.827 587.522 874.613 586.139C872.399 584.756 869.238 584.078 865.131 584.104C860.384 584.135 857.025 585.436 855.056 588.007C853.954 589.428 853.243 591.537 852.925 594.334L844.44 594.388C844.566 587.721 846.699 583.07 850.841 580.434C854.982 577.798 859.796 576.462 865.284 576.427C871.647 576.386 876.822 577.565 880.811 579.964C884.765 582.362 886.759 586.12 886.792 591.238L886.992 622.396C886.998 623.339 887.196 624.095 887.587 624.665C887.978 625.235 888.796 625.516 890.042 625.508C890.446 625.505 890.9 625.477 891.405 625.424C891.91 625.37 892.448 625.291 893.019 625.186L893.063 631.902C891.651 632.316 890.575 632.575 889.835 632.681C889.095 632.786 888.086 632.843 886.806 632.852C883.675 632.872 881.396 631.775 879.967 629.562C879.219 628.389 878.687 626.726 878.37 624.573C876.534 627.009 873.887 629.13 870.431 630.937C866.975 632.743 863.16 633.66 858.985 633.687C853.968 633.719 849.86 632.222 846.659 629.195C843.458 626.169 841.842 622.366 841.813 617.788C841.781 612.771 843.321 608.873 846.435 606.092C849.548 603.311 853.644 601.585 858.724 600.912L873.206 599.001Z"/>
</g>
<g opacity="0" vectornator:layerName="Gruppieren 3"/>
<g opacity="1" vectornator:layerName="Gruppieren 4">
<use fill="url(#LinearGradient)" fill-rule="nonzero" opacity="1" stroke="#500a50" stroke-linecap="butt" stroke-linejoin="round" stroke-width="13.5398" vectornator:layerName="Kurve 2" xlink:href="#Fill"/>
<clipPath clip-rule="nonzero" id="ClipPath">
<use xlink:href="#Fill"/>
</clipPath>
<g clip-path="url(#ClipPath)">
<path d="M1021.87 839.163C1021.87 786.935 1062.96 744.597 1113.66 744.597C1151.11 744.597 1183.32 767.707 1197.59 800.841C1202.64 812.555 1205.44 825.522 1205.44 839.163C1205.44 891.39 1164.35 933.729 1113.66 933.729C1062.96 933.729 1021.87 891.39 1021.87 839.163Z" fill="url(#LinearGradient_2)" fill-rule="nonzero" opacity="1" stroke="#500a50" stroke-linecap="butt" stroke-linejoin="round" stroke-width="13.5398" vectornator:layerName="Oval 10"/>
<use fill="#781c70" fill-opacity="0.678902" fill-rule="nonzero" opacity="1" stroke="#500a50" stroke-linecap="butt" stroke-linejoin="round" stroke-width="13.5398" vectornator:layerName="Oval 3" xlink:href="#Fill_2"/>
<clipPath clip-rule="nonzero" id="ClipPath_2">
<use xlink:href="#Fill_2"/>
</clipPath>
<g clip-path="url(#ClipPath_2)">
<path d="M1242.13 644.179C1242.13 602.237 1274.57 568.236 1314.59 568.236C1354.61 568.236 1387.05 602.237 1387.05 644.179C1387.05 686.121 1354.61 720.121 1314.59 720.121C1274.57 720.121 1242.13 686.121 1242.13 644.179Z" fill="#781c70" fill-opacity="0.678902" fill-rule="nonzero" opacity="1" stroke="#500a50" stroke-linecap="butt" stroke-linejoin="round" stroke-width="13.5398" vectornator:layerName="Oval 4"/>
<path d="M1295.9 663.935C1295.9 639.46 1316.3 619.619 1341.47 619.619C1366.64 619.619 1387.05 639.46 1387.05 663.935C1387.05 688.409 1366.64 708.25 1341.47 708.25C1316.3 708.25 1295.9 688.409 1295.9 663.935Z" fill="#781c70" fill-opacity="0.678902" fill-rule="nonzero" opacity="1" stroke="#500a50" stroke-linecap="butt" stroke-linejoin="round" stroke-width="13.5398" vectornator:layerName="Oval 5"/>
</g>
</g>
</g>
</g>
<g id="Ebene-2" vectornator:layerName="Ebene 2" visibility="hidden"/>
</svg>
